<svg version="1.1" id="layer" xmlns="http://www.w3.org/2000/svg" xmlns:xlink="http://www.w3.org/1999/xlink" viewBox="-117 460.1 1035 305" preserveAspectRatio="xMidYMid meet" fill="#fff">
<g id="Outline">
	<path d="M-13.3,684.9c-11.9,4.9-23.5,7.7-34,7.7c-19.3,0-35.4-5.6-48-17.2c-13-11.9-19.6-27.3-19.6-46.2c0-18.2,6.3-33.6,19.3-45.9
		s29.1-18.6,48.3-18.6c10.9,0,22.4,2.5,34,7.7v32.6c-12.3-7.4-23.1-10.9-31.9-10.9c-24.2,0-36.1,11.6-36.1,35
		c0,22.8,11.9,34,36.1,34c11.2,0,21.7-3.9,31.9-11.6V684.9L-13.3,684.9z"/>
	<path d="M128.9,674.1l-31.2,14v-17.9C90,685.3,77,692.6,59.2,692.6c-18.2,0-32.2-6.3-42.4-18.9c-9.1-11.6-14-26.6-14-45.2
		c0-17.9,5.6-32.9,16.5-45.5c10.9-12.3,24.2-18.6,39.9-18.6c17.5,0,30.5,6.7,38.2,20.3v-15.8h31.2v105H128.9z M97.7,625.4
		c0-9.5-2.5-17.2-7.4-23.1c-5.3-6.3-12.6-9.5-22.4-9.5c-9.1,0-16.5,3.2-22.4,9.5c-6,6.7-8.8,15.4-8.8,26.3c0,10.9,2.8,19.3,8.1,25.9
		c5.3,6.3,12.6,9.5,21.4,9.5c10.9,0,18.6-2.8,23.5-8.8C95.2,649.2,97.7,639.4,97.7,625.4z"/>
	<path d="M191.2,688.1h-31.5V500.5l31.5-37.5V688.1z"/>
	<path d="M381.9,673l-31.2,15.1v-17.9c-7.7,15.1-20.7,22.4-38.5,22.4c-18.2,0-32.2-6.3-42.4-18.9c-9.1-11.6-14-26.6-14-45.2
		c0-17.9,5.6-32.9,16.5-45.5c10.9-12.3,24.2-18.6,39.9-18.6c17.5,0,30.5,6.7,38.2,20.3v-15.8h31.2v104H381.9z M350.8,625.4
		c0-9.5-2.5-17.2-7.4-23.1c-5.3-6.3-12.6-9.5-22.4-9.5c-9.1,0-16.5,3.2-22.4,9.5c-6,6.7-8.8,15.4-8.8,26.3c0,10.9,2.8,19.3,8.1,25.9
		c5.3,6.3,12.6,9.5,21.4,9.5c10.9,0,18.6-2.8,23.5-8.8C348,649.2,350.8,639.4,350.8,625.4z"/>
	<path d="M531.1,688.1h-30.8v-17.9c-7.7,15.1-20.7,22.4-38.5,22.4c-18.2,0-32.2-6.3-42.4-18.9c-9.5-11.6-14-26.6-14-45.2
		c0-17.9,5.6-32.9,16.5-45.5c10.9-12.3,24.5-18.6,40.3-18.6c17.5,0,30.5,6.7,38.2,20.3c0-1.8,0-4.2-0.3-7.4c-0.4-3.2-0.4-6-0.4-8.4
		v-69l31.5-37.5V688.1z M500.3,625.4c0-9.5-2.5-17.2-7.4-23.1c-5.3-6.3-13-9.5-22.4-9.5c-9.1,0-16.8,3.2-22.4,9.5
		c-6,6.7-9.1,15.4-9.1,26.3c0,10.9,2.8,19.3,8.1,25.9c5.6,6.3,12.6,9.5,21.4,9.5c10.9,0,18.6-2.8,23.8-8.8
		C497.5,649.2,500.3,639.4,500.3,625.4z"/>
	<path d="M680.2,679l-31.2,9.5v-17.9c-7.7,15.1-20.7,22.4-38.5,22.4c-18.2,0-32.2-6.3-42.4-18.9c-9.1-11.6-14-26.6-14-45.2
		c0-17.9,5.6-32.9,16.5-45.5c10.9-12.3,24.2-18.6,39.9-18.6c17.5,0,30.5,6.7,38.2,20.3v-15.8h31.2V679H680.2z M649,625.4
		c0-9.5-2.5-17.2-7.4-23.1c-5.3-6.3-12.6-9.5-22.4-9.5c-9.1,0-16.5,3.2-22.4,9.5c-6,6.7-8.8,15.4-8.8,26.3c0,10.9,2.8,19.3,8.1,25.9
		c5.3,6.3,12.6,9.5,21.4,9.5c10.9,0,18.6-2.8,23.5-8.8C646.6,649.2,649,639.4,649,625.4z"/>
	<path d="M836.3,628.6c0,19.6-5.6,35.4-16.5,47.3c-10.5,11.2-23.8,16.8-40.3,16.8c-17.5,0-30.5-6.7-38.2-19.6c0,1.4,0,3.9,0.3,7
		s0.3,6,0.3,8.1v74.6h-31.5V569.1h30.8v17.2c7.7-14.4,20.3-21.7,38.2-21.7c18.2,0,32.6,6.3,42.7,18.6
		C831.8,595,836.3,610,836.3,628.6z M802.7,628.6c0-24.5-9.8-36.4-29.8-36.4c-21,0-31.5,13.3-31.5,39.9c0,9.5,2.5,17.2,7.7,22.8
		c5.3,6,12.6,9.1,22.1,9.1C792.2,663.9,802.7,652.4,802.7,628.6z"/>
	<path d="M915.8,596.7h-22.4v78.8l-31.2,13v-91.4h-15.1v-27.3h15.1V519h31.2v50.4h22.4V596.7z"/>
	<g>
		<path d="M228.3,613.5h-25.2v-26.6h50.8L228.3,613.5z"/>
	</g>
</g>
</svg>
