<svg version="1.1" xmlns="http://www.w3.org/2000/svg" viewBox="0 0 32 32">
  <title>external link</title>
  <g transform="matrix(0.32526428,0,0,0.32526428,2.9999999,2.9999999)">
    <path
       d="M 54.073,9.405 C 51.476,9.405 49.37,7.299 49.37,4.702 49.37,2.106 51.476,0 54.073,0 l 21.16,0 c 2.595,0 4.702,2.108 4.702,4.702 l 0,21.161 c 0,2.596 -2.106,4.702 -4.702,4.702 -2.596,0 -4.702,-2.106 -4.702,-4.702 l 0,-9.81 -27.239,27.239 c -1.836,1.835 -4.813,1.835 -6.649,0 -1.835,-1.836 -1.835,-4.813 0,-6.649 l 27.239,-27.238 -9.809,0 z M 70.531,44.67 c 0,-2.597 2.106,-4.702 4.702,-4.702 2.596,0 4.702,2.105 4.702,4.702 l 0,30.563 c 0,2.596 -2.106,4.702 -4.702,4.702 l -70.531,0 C 2.106,79.935 0,77.829 0,75.233 L 0,4.702 C 0,2.106 2.106,0 4.702,0 l 30.563,0 c 2.597,0 4.703,2.106 4.703,4.702 0,2.597 -2.106,4.703 -4.703,4.703 l -25.86,0 0,61.126 61.126,0 0,-25.861 z"
     />
  </g>
</svg>
