<?xml version="1.0" encoding="UTF-8" standalone="no"?>
<!-- Generated by IcoMoon.io -->

<svg
   xmlns:dc="http://purl.org/dc/elements/1.1/"
   xmlns:cc="http://creativecommons.org/ns#"
   xmlns:rdf="http://www.w3.org/1999/02/22-rdf-syntax-ns#"
   xmlns:svg="http://www.w3.org/2000/svg"
   xmlns="http://www.w3.org/2000/svg"
   xmlns:sodipodi="http://sodipodi.sourceforge.net/DTD/sodipodi-0.dtd"
   xmlns:inkscape="http://www.inkscape.org/namespaces/inkscape"
   version="1.1"
   width="32"
   height="32"
   viewBox="0 0 32 32"
   id="svg2"
   inkscape:version="0.91 r13725"
   sodipodi:docname="list2.svg">
  <metadata
     id="metadata12">
    <rdf:RDF>
      <cc:Work
         rdf:about="">
        <dc:format>image/svg+xml</dc:format>
        <dc:type
           rdf:resource="http://purl.org/dc/dcmitype/StillImage" />
        <dc:title>github</dc:title>
      </cc:Work>
    </rdf:RDF>
  </metadata>
  <defs
     id="defs10" />
  <sodipodi:namedview
     pagecolor="#ffffff"
     bordercolor="#666666"
     borderopacity="1"
     objecttolerance="10"
     gridtolerance="10"
     guidetolerance="10"
     inkscape:pageopacity="0"
     inkscape:pageshadow="2"
     inkscape:window-width="1629"
     inkscape:window-height="1026"
     id="namedview8"
     showgrid="false"
     inkscape:zoom="13.38"
     inkscape:cx="9.8872113"
     inkscape:cy="16"
     inkscape:window-x="51"
     inkscape:window-y="24"
     inkscape:window-maximized="1"
     inkscape:current-layer="svg2" />
  <rect
     style="opacity:0.5;fill:#001a1a;fill-opacity:0.8;stroke:none;stroke-width:1;stroke-linecap:round;stroke-miterlimit:4;stroke-dasharray:none;stroke-opacity:1"
     id="rect4985"
     width="32"
     height="32"
     x="0"
     y="0" />
  <title
     id="title4">github</title>
  <g
     transform="matrix(0.05250111,0,0,0.06219029,2.5695073,0.09091534)"
     id="g4347">
    <g
       id="g4349">
      <path
         inkscape:connector-curvature="0"
         d="m 63.953,164.453 -54.818,0 c -2.474,0 -4.615,0.9 -6.423,2.709 C 0.903,168.972 0,171.114 0,173.589 l 0,54.817 c 0,2.473 0.903,4.619 2.712,6.424 1.809,1.803 3.949,2.712 6.423,2.712 l 54.818,0 c 2.474,0 4.615,-0.905 6.423,-2.712 1.809,-1.809 2.712,-3.951 2.712,-6.424 l 0,-54.817 c 0,-2.475 -0.904,-4.617 -2.712,-6.427 -1.808,-1.806 -3.949,-2.709 -6.423,-2.709 z"
         id="path4351" />
      <path
         inkscape:connector-curvature="0"
         d="m 63.953,383.722 -54.818,0 c -2.474,0 -4.615,0.896 -6.423,2.707 C 0.903,388.238 0,390.378 0,392.854 l 0,54.82 c 0,2.471 0.903,4.609 2.712,6.42 1.809,1.813 3.949,2.714 6.423,2.714 l 54.818,0 c 2.474,0 4.615,-0.903 6.423,-2.714 1.809,-1.807 2.712,-3.949 2.712,-6.42 l 0,-54.82 c 0,-2.477 -0.904,-4.616 -2.712,-6.426 -1.808,-1.803 -3.949,-2.706 -6.423,-2.706 z"
         id="path4353" />
      <path
         inkscape:connector-curvature="0"
         d="m 63.953,274.082 -54.818,0 c -2.474,0 -4.615,0.91 -6.423,2.714 C 0.904,278.6 0,280.749 0,283.22 l 0,54.815 c 0,2.478 0.903,4.62 2.712,6.427 1.809,1.808 3.949,2.707 6.423,2.707 l 54.818,0 c 2.474,0 4.615,-0.896 6.423,-2.707 1.809,-1.807 2.712,-3.949 2.712,-6.427 l 0,-54.815 c 0,-2.471 -0.904,-4.613 -2.712,-6.424 -1.808,-1.807 -3.949,-2.714 -6.423,-2.714 z"
         id="path4355" />
      <path
         inkscape:connector-curvature="0"
         d="m 63.953,54.817 -54.818,0 C 6.661,54.817 4.52,55.72 2.712,57.529 0.904,59.338 0,61.479 0,63.953 l 0,54.817 c 0,2.475 0.903,4.615 2.712,6.424 1.809,1.809 3.949,2.712 6.423,2.712 l 54.818,0 c 2.474,0 4.615,-0.9 6.423,-2.712 1.809,-1.809 2.712,-3.949 2.712,-6.424 l 0,-54.817 c 0,-2.475 -0.904,-4.615 -2.712,-6.424 -1.808,-1.804 -3.949,-2.712 -6.423,-2.712 z"
         id="path4357" />
      <path
         inkscape:connector-curvature="0"
         d="m 502.49,383.722 -383.719,0 c -2.474,0 -4.615,0.896 -6.423,2.707 -1.809,1.81 -2.712,3.949 -2.712,6.426 l 0,54.82 c 0,2.471 0.903,4.609 2.712,6.42 1.809,1.813 3.946,2.714 6.423,2.714 l 383.719,0 c 2.478,0 4.616,-0.903 6.427,-2.714 1.81,-1.811 2.71,-3.949 2.71,-6.42 l 0,-54.82 c 0,-2.477 -0.903,-4.616 -2.71,-6.426 -1.811,-1.804 -3.95,-2.707 -6.427,-2.707 z"
         id="path4359" />
      <path
         inkscape:connector-curvature="0"
         d="m 502.49,274.082 -383.719,0 c -2.474,0 -4.615,0.91 -6.423,2.714 -1.808,1.804 -2.712,3.953 -2.712,6.424 l 0,54.815 c 0,2.478 0.903,4.62 2.712,6.427 1.809,1.808 3.946,2.707 6.423,2.707 l 383.719,0 c 2.478,0 4.616,-0.896 6.427,-2.707 1.81,-1.807 2.71,-3.949 2.71,-6.427 l 0,-54.815 c 0,-2.471 -0.903,-4.613 -2.71,-6.424 -1.811,-1.804 -3.95,-2.714 -6.427,-2.714 z"
         id="path4361" />
      <path
         inkscape:connector-curvature="0"
         d="m 508.917,57.529 c -1.811,-1.805 -3.949,-2.712 -6.427,-2.712 l -383.719,0 c -2.474,0 -4.615,0.903 -6.423,2.712 -1.808,1.809 -2.712,3.949 -2.712,6.424 l 0,54.817 c 0,2.475 0.903,4.615 2.712,6.424 1.809,1.809 3.946,2.712 6.423,2.712 l 383.719,0 c 2.478,0 4.616,-0.9 6.427,-2.712 1.81,-1.809 2.71,-3.949 2.71,-6.424 l 0,-54.817 c -0.001,-2.474 -0.904,-4.615 -2.71,-6.424 z"
         id="path4363" />
      <path
         inkscape:connector-curvature="0"
         d="m 502.49,164.453 -383.719,0 c -2.474,0 -4.615,0.9 -6.423,2.709 -1.809,1.81 -2.712,3.952 -2.712,6.427 l 0,54.817 c 0,2.473 0.903,4.615 2.712,6.424 1.809,1.803 3.946,2.712 6.423,2.712 l 383.719,0 c 2.478,0 4.616,-0.905 6.427,-2.712 1.81,-1.809 2.71,-3.951 2.71,-6.424 l 0,-54.817 c 0,-2.475 -0.903,-4.617 -2.71,-6.427 -1.811,-1.806 -3.95,-2.709 -6.427,-2.709 z"
         id="path4365" />
    </g>
  </g>
</svg>
