<?xml version="1.0" encoding="utf-8"?>
<!-- Generator: Adobe Illustrator 16.0.4, SVG Export Plug-In . SVG Version: 6.00 Build 0)  -->
<!DOCTYPE svg PUBLIC "-//W3C//DTD SVG 1.1//EN" "http://www.w3.org/Graphics/SVG/1.1/DTD/svg11.dtd">
<svg version="1.1" id="Layer_1" xmlns="http://www.w3.org/2000/svg" xmlns:xlink="http://www.w3.org/1999/xlink" x="0px" y="0px"
	 width="1000px" height="1000px" viewBox="0 0 1000 1000" enable-background="new 0 0 1000 1000" xml:space="preserve">
<path fill="none" stroke="#FFFFFF" stroke-width="91.8095" stroke-miterlimit="3" d="M48.034,499.245
	c0-250.765,200.725-454.049,448.333-454.049c247.613,0,448.332,203.284,448.332,454.049c0,250.766-200.719,454.05-448.332,454.05
	C248.759,953.295,48.034,750.011,48.034,499.245z"/>
<path fill="#1D1D1B" d="M48.034,499.245c0-250.765,200.725-454.049,448.333-454.049c247.613,0,448.332,203.284,448.332,454.049
	c0,250.766-200.719,454.05-448.332,454.05C248.759,953.295,48.034,750.011,48.034,499.245z"/>
<path fill-rule="evenodd" clip-rule="evenodd" fill="#FFFFFF" d="M515.98,297.318c0,0,107.157,6.836,107.005,29.171
	c-0.134,19.615-126.866,39.319-126.866,68.491c0,29.171,263.847,47.258,263.847,92.589c0,44.329-259.145,43.522-258.421,105.388
	c0.827,70.519,148.342,103.052,150.612,215.515c1.92,95.106-209.792,156.476-209.792,156.476S300.575,933.624,243.5,890.5
	C186.425,847.378,132.667,778,132.667,778s160.518-11.383,164.323-63.385c3.806-52.001-51.989-52.584-52.002-125.564
	c-0.015-83.912,312.043-87.528,310.776-114.165c-1.268-26.635-176.673-27.698-173.437-81.926
	c2.927-49.043,181.337-43.884,181.047-65.201C563.133,309.938,515.98,297.318,515.98,297.318z"/>
</svg>
