<?xml version="1.0" encoding="UTF-8" standalone="no"?>
<svg
   xmlns:dc="http://purl.org/dc/elements/1.1/"
   xmlns:cc="http://creativecommons.org/ns#"
   xmlns:rdf="http://www.w3.org/1999/02/22-rdf-syntax-ns#"
   xmlns:svg="http://www.w3.org/2000/svg"
   xmlns="http://www.w3.org/2000/svg"
   id="svg2"
   viewBox="0 0 62 62"
   version="1.1">
  <metadata
     id="metadata41">
    <rdf:RDF>
      <cc:Work
         rdf:about="">
        <dc:format>image/svg+xml</dc:format>
        <dc:type
           rdf:resource="http://purl.org/dc/dcmitype/StillImage" />
        <dc:title></dc:title>
      </cc:Work>
    </rdf:RDF>
  </metadata>
  <defs
     id="defs4">
    <linearGradient
       gradientTransform="matrix(1.9354839,0,0,1.9354839,0.99999955,0.99999955)"
       y2="15.5"
       x2="31"
       y1="15.5"
       x1="0"
       gradientUnits="userSpaceOnUse"
       id="gradient-sea">
      <stop
         id="stop7"
         style="stop-color:#DDFFFF"
         offset="0" />
      <stop
         id="stop9"
         style="stop-color:#FFFFFF"
         offset="0.3933" />
      <stop
         id="stop11"
         style="stop-color:#F9FFFF"
         offset="0.4886" />
      <stop
         id="stop13"
         style="stop-color:#E8FFFF"
         offset="0.6178" />
      <stop
         id="stop15"
         style="stop-color:#CBFFFF"
         offset="0.7664" />
      <stop
         id="stop17"
         style="stop-color:#A4FFFF"
         offset="0.9282" />
      <stop
         id="stop19"
         style="stop-color:#90FFFF"
         offset="1" />
    </linearGradient>
  </defs>
  <circle
     id="circle21"
     r="30"
     cy="31"
     cx="31"
     style="fill:url(#gradient-sea)" />
  <g
     id="g4189">
    <path
       style="fill:#5dd6ff"
       d="M 60.750323,34.894194 C 58.84,49.621291 46.249678,61 31,61 15.847097,61 3.3187093,49.764516 1.2864512,35.172903 L 60.750323,34.894194 Z"
       id="path23" />
    <path
       style="fill:#5dd6ff"
       d="M 31,34.894194 31,61 C 15.849032,61 3.3225802,49.768387 1.2883867,35.176774 L 31,34.894194 Z"
       id="path25" />
    <path
       style="fill:#2aa3de"
       d="m 15.403871,47.908387 c 2.787097,0 5.448387,-0.733548 7.798064,-2.136774 2.349678,1.405161 5.010968,2.136774 7.8,2.136774 2.783226,0 5.448388,-0.733548 7.79613,-2.136774 2.351613,1.405161 5.014838,2.136774 7.798064,2.136774 2.785162,0 5.448387,-0.733548 7.796129,-2.136774 0.679355,0.402581 1.378065,0.750968 2.101936,1.039355 0.901935,-1.449677 1.683871,-2.984516 2.330323,-4.585161 -1.02,-0.36 -1.983871,-0.884517 -2.862581,-1.567742 -0.925161,-0.716129 -2.218065,-0.716129 -3.141291,0 -1.796129,1.397419 -3.946451,2.134838 -6.226451,2.134838 -2.283871,0 -4.434194,-0.737419 -6.230323,-2.132903 -0.927097,-0.718064 -2.218064,-0.718064 -3.139355,0 -1.796129,1.395484 -3.948387,2.132903 -6.228387,2.132903 -2.28,0 -4.436129,-0.737419 -6.228387,-2.134838 -0.925161,-0.716129 -2.22,-0.716129 -3.143226,0 -1.794194,1.397419 -3.946452,2.134838 -6.226452,2.134838 -2.28,0 -4.434193,-0.737419 -6.2283869,-2.134838 -0.9251613,-0.72 -2.2180646,-0.716129 -3.1432259,0 -0.8767742,0.683225 -1.8387097,1.207742 -2.8606452,1.567742 0.6464517,1.600645 1.4283872,3.135484 2.3303226,4.585161 0.723871,-0.288387 1.4264517,-0.636774 2.1019356,-1.039355 2.3554839,1.403226 5.0187098,2.136774 7.8058068,2.136774 z"
       id="path27" />
    <path
       style="fill:#2aa3de"
       d="m 52.822581,48.672903 c -1.796129,1.395484 -3.946452,2.136775 -6.226452,2.136775 -2.283871,0 -4.434193,-0.741291 -6.230322,-2.136775 -0.927097,-0.721935 -2.218065,-0.721935 -3.139355,0 -1.796129,1.395484 -3.948387,2.136775 -6.228387,2.136775 -2.280001,0 -4.43613,-0.741291 -6.228388,-2.136775 -0.925161,-0.718064 -2.218064,-0.718064 -3.143226,0.0039 C 19.834193,50.074194 17.68,50.811613 15.4,50.811613 c -2.28,0 -4.434194,-0.737419 -6.2283874,-2.136774 -0.7625807,-0.603871 -1.7825807,-0.700645 -2.6361291,-0.307742 2.0903226,2.943871 4.6974195,5.485161 7.6877425,7.507742 0.390967,0.03097 0.783871,0.04452 1.180645,0.04452 2.787097,0 5.448387,-0.733548 7.798064,-2.136774 2.349678,1.405161 5.010968,2.136774 7.8,2.136774 2.783226,0 5.448388,-0.733548 7.79613,-2.136774 2.351613,1.405161 5.014838,2.136774 7.798064,2.136774 0.396774,0 0.789678,-0.01742 1.17871,-0.04452 2.990323,-2.022581 5.599355,-4.563871 7.685807,-7.507742 -0.851613,-0.392903 -1.873549,-0.292258 -2.638065,0.305806 z"
       id="path29" />
    <path
       style="fill:#2aa3de"
       d="m 31,42.794839 c -2.28,0 -4.436129,-0.737419 -6.228387,-2.134839 -0.925161,-0.716129 -2.218065,-0.716129 -3.143226,0 -1.792258,1.39742 -3.946452,2.134839 -6.226452,2.134839 -2.28,0 -4.434193,-0.737419 -6.2283869,-2.134839 -0.9251613,-0.72 -2.2180646,-0.716129 -3.1432259,0 -0.8767742,0.683226 -1.8387097,1.207742 -2.8587097,1.567742 0.6464516,1.600645 1.4283871,3.135484 2.3303226,4.585161 0.723871,-0.290322 1.4264516,-0.636774 2.1019355,-1.039354 2.347742,1.403225 5.0109674,2.136774 7.7980644,2.136774 2.787097,0 5.448387,-0.733549 7.798065,-2.136774 2.349677,1.403225 5.010968,2.136774 7.8,2.136774 l 0,-5.115484 0,0 0,0 z"
       id="path31" />
    <path
       style="fill:#2aa3de"
       d="m 31,50.803871 c -2.28,0 -4.436129,-0.737419 -6.228387,-2.136774 -0.925161,-0.718064 -2.218065,-0.718064 -3.143226,0.0039 -1.792258,1.395484 -3.946452,2.136774 -6.226452,2.136774 -2.28,0 -4.434193,-0.74129 -6.2283869,-2.136774 -0.7664517,-0.594194 -1.7864517,-0.692903 -2.6400001,-0.3 2.0903226,2.941936 4.697419,5.485161 7.687742,7.507742 0.390968,0.02903 0.783871,0.04258 1.180645,0.04258 2.787097,0 5.448387,-0.733549 7.798065,-2.136775 2.349677,1.407097 5.010968,2.136775 7.8,2.136775 l 0,-5.11742 0,0 z"
       id="path33" />
    <path
       style="fill:#2aa3de"
       d="m 15.403871,39.899355 c 2.787097,0 5.448387,-0.733548 7.798064,-2.136774 2.349678,1.403226 5.010968,2.136774 7.8,2.136774 2.783226,0 5.448388,-0.733548 7.79613,-2.136774 2.351613,1.403226 5.014838,2.136774 7.798064,2.136774 2.785162,0 5.448387,-0.733548 7.796129,-2.136774 1.643226,0.98129 3.43742,1.633548 5.324517,1.939355 0.487742,-1.62 0.847742,-3.292258 1.056774,-5.016775 -1.751613,-0.241935 -3.392903,-0.930967 -4.809678,-2.034193 -0.923225,-0.721936 -2.218064,-0.721936 -3.14129,0 -1.792258,1.395484 -3.946452,2.136774 -6.226452,2.136774 -2.281935,0 -4.434193,-0.739355 -6.228387,-2.136774 -0.925161,-0.721936 -2.218064,-0.721936 -3.139355,0 -1.796129,1.397419 -3.946451,2.136774 -6.228387,2.136774 -2.28,0 -4.434194,-0.74129 -6.228387,-2.136774 -0.925161,-0.721936 -2.22,-0.721936 -3.143226,0 -1.794194,1.395484 -3.946452,2.136774 -6.226452,2.136774 -2.28,0 -4.434193,-0.74129 -6.2283869,-2.136774 -0.9251613,-0.721936 -2.2180646,-0.721936 -3.1432259,0 -1.4148387,1.099355 -3.0561291,1.792258 -4.807742,2.034193 0.2109677,1.724517 0.5670968,3.396775 1.0567742,5.016775 1.8851613,-0.305807 3.6793549,-0.958065 5.3225807,-1.939355 2.351613,1.403226 5.0148389,2.136774 7.8019359,2.136774 z"
       id="path35" />
    <path
       style="fill:#2aa3e3"
       d="m 31,34.787742 c -2.28,0 -4.436129,-0.74129 -6.228387,-2.136774 -0.925161,-0.721936 -2.218065,-0.721936 -3.143226,0 -1.792258,1.395484 -3.946452,2.136774 -6.226452,2.136774 -2.28,0 -4.434193,-0.74129 -6.2283869,-2.136774 -0.9251613,-0.721936 -2.2180646,-0.721936 -3.1432259,0 -1.4148387,1.099355 -3.0561291,1.792258 -4.807742,2.034193 0.2109677,1.724517 0.5690323,3.396775 1.0567742,5.016775 1.8851613,-0.305807 3.6793549,-0.958065 5.3225807,-1.939355 2.347742,1.403226 5.0109679,2.136774 7.7980649,2.136774 2.787097,0 5.448387,-0.733548 7.798064,-2.136774 2.349678,1.403226 5.010968,2.136774 7.800001,2.136774 L 31,34.787742 l 0,0 z"
       id="path37" />
  </g>
</svg>
