<?xml version="1.0" encoding="UTF-8" standalone="no"?>
<svg version="1.1" xmlns="http://www.w3.org/2000/svg" xmlns:xlink="http://www.w3.org/1999/xlink" xmlns:a="http://ns.adobe.com/AdobeSVGViewerExtensions/3.0/" viewBox="0 0 62 62">
  <defs>
    <radialGradient id="gradient-snowflake">
      <stop  offset="0" style="stop-color:#C8C8C8;stop-opacity:0.3"/>
      <stop  offset="0.5" style="stop-color:#C8C8C8;stop-opacity:0.5"/>
      <stop  offset="1" style="stop-color:#C8C8C8;stop-opacity:0.3"/>
    </radialGradient>
  </defs>
  <circle style="fill:url(#gradient-snowflake)" r="30" cy="31" cx="31" />
  <path
     style="fill:#25a9e1;stroke:#ffffff;stroke-width:0.49516687"
     d="m 54.844951,42.753279 -0.17826,-0.08913 c 0.265409,-0.17826 0.530819,-0.354539 0.619949,-0.619948 0.265409,-0.530819 0.354539,-1.148788 0.08715,-1.679607 -0.441689,-0.883377 -1.501345,-1.237916 -2.382742,-0.794247 l -2.030184,0.968546 -1.941054,-1.148786 4.062348,-1.412217 c 0.44367,-0.17826 0.705118,-0.443669 0.970527,-0.794246 0.26739,-0.443671 0.352559,-0.970528 0.17826,-1.501347 C 53.876406,34.798919 52.90786,34.2681 51.933371,34.62066 l -6.890742,2.475833 -0.530819,-0.267389 1.590476,-1.768736 c 0.08913,-0.08715 0.17826,-0.176279 0.17826,-0.26541 0.441689,-0.705118 0.263429,-1.677625 -0.354539,-2.208445 -0.794248,-0.792266 -1.943035,-0.705117 -2.562984,0 l -2.032165,2.297575 -2.384723,-1.325067 0,-5.125967 2.384723,-1.414197 2.032165,2.293613 c 0.619949,0.709079 1.768736,0.796228 2.473854,0.180241 0.619948,-0.5328 0.794248,-1.505307 0.354539,-2.208444 -0.08913,-0.08715 -0.08913,-0.17628 -0.17826,-0.26541 l -1.590476,-1.768736 0.530819,-0.265409 6.890742,2.471873 c 0.883378,0.35652 1.943035,-0.17628 2.297574,-1.057677 0.17826,-0.530819 0.08913,-1.061637 -0.17826,-1.503326 -0.176279,-0.352559 -0.528838,-0.619949 -0.970527,-0.794247 l -4.06433,-1.414197 1.943035,-1.148787 2.030183,0.972508 c 0.881398,0.441688 1.943035,0.08913 2.384724,-0.794248 0.265409,-0.5328 0.265409,-1.148787 -0.08913,-1.679606 -0.17826,-0.26541 -0.352559,-0.44367 -0.619949,-0.619949 l 0.180241,-0.08913 c 0.879417,-0.530819 1.146807,-1.590476 0.617968,-2.384724 -0.528838,-0.881397 -1.590476,-1.146806 -2.382743,-0.619949 l -0.17826,0.09507 c 0,-0.883377 -0.703137,-1.679606 -1.681587,-1.768736 -0.968546,-0.08715 -1.855885,0.705118 -1.855885,1.679606 l -0.174299,2.212406 -1.943034,1.148787 0.794247,-4.24259 c 0.17826,-0.970527 -0.44367,-1.857866 -1.416177,-2.030184 -0.970527,-0.176279 -1.855885,0.44367 -2.030184,1.414197 l -1.323086,7.243301 -0.44565,0.08913 -0.792268,-2.208444 c -0.26739,-0.881397 -1.327046,-1.414197 -2.206463,-1.148788 -0.883377,0.35454 -1.418157,1.325067 -1.148787,2.208445 l 0.968546,2.917523 -2.382742,1.501345 -4.41887,-2.473853 0,-2.828393 3.008634,-0.617968 c 0.970527,-0.180241 1.592456,-1.148787 1.414196,-2.119314 -0.18024,-0.972508 -1.148786,-1.592457 -2.121294,-1.414197 l -2.297575,0.530819 0,-0.530819 5.569638,-4.771428 C 39.037244,10.589221 39.126374,9.4404338 38.510387,8.7353163 37.894399,8.0301988 36.737689,7.939088 36.030591,8.5590371 l -3.270082,2.7392639 0,-2.2975755 1.857866,-1.2359359 C 35.414603,7.2339705 35.678032,6.085183 35.149194,5.2909355 34.620356,4.4986688 33.558718,4.318428 32.762489,4.7601171 l 0,-0.26541 c 0,-0.9725076 -0.794247,-1.7707166 -1.766755,-1.7707166 -0.972507,0 -1.766755,0.794247 -1.766755,1.7707166 l 0,0.26541 c -0.796228,-0.4456508 -1.857866,-0.26541 -2.388685,0.5308184 -0.530819,0.7962283 -0.352559,1.943035 0.530819,2.4738541 l 1.855885,1.2359359 0,2.2975755 -3.268101,-2.8283939 c -0.707099,-0.6199491 -1.855885,-0.5328 -2.473854,0.17826 -0.619949,0.7031367 -0.530819,1.8558849 0.17628,2.4718729 l 5.567656,4.771428 0,0.530819 -2.297575,-0.441689 c -0.972507,-0.17826 -1.855885,0.441689 -2.121294,1.414197 -0.17628,0.970527 0.441688,1.855885 1.412216,2.119314 l 3.004672,0.617968 0,2.828393 -4.416888,2.473853 -2.473854,-1.414196 0.970527,-2.915542 c 0.35454,-0.883378 -0.17628,-1.943035 -1.148787,-2.208445 -0.883378,-0.354539 -1.943035,0.178261 -2.208444,1.148788 l -0.707099,2.119314 -0.530818,-0.26739 -1.329028,-7.243301 c -0.176279,-0.970527 -1.059657,-1.592457 -2.032165,-1.412216 -0.974489,0.176279 -1.592457,1.057676 -1.416177,2.032165 l 0.796228,4.24457 -1.943035,-1.148787 -0.17826,-2.210425 c -0.08913,-0.972508 -0.881397,-1.681587 -1.855885,-1.681587 -0.9685463,0.08913 -1.6756453,0.883378 -1.6756453,1.766756 l -0.17826,0 c -0.883378,-0.528838 -1.945015,-0.263429 -2.384724,0.615987 -0.528838,0.887339 -0.26739,1.946996 0.617969,2.386705 l 0.176279,0.08715 c -0.26739,0.18024 -0.530819,0.35652 -0.617968,0.621929 -0.26541,0.530819 -0.352559,1.148787 -0.08715,1.679606 0.441689,0.883378 1.501346,1.235937 2.384724,0.794248 l 2.0321653,-0.970527 1.943035,1.148787 -4.0643303,1.501346 c -0.44367,0.176279 -0.707098,0.44565 -0.972508,0.794247 -0.265409,0.441689 -0.354539,0.972509 -0.176279,1.503328 0.352559,0.881397 1.325067,1.414196 2.2975743,1.057676 l 6.888762,-2.471874 0.530819,0.26541 -1.590477,1.768736 c -0.08913,0.08913 -0.176279,0.178261 -0.176279,0.265409 -0.441689,0.703137 -0.265409,1.679606 0.352559,2.208445 0.705118,0.61995 1.855885,0.532799 2.473854,-0.18024 l 2.032165,-2.293614 2.384723,1.414196 0,5.125968 -2.384723,1.414196 -1.943035,-2.386704 c -0.617969,-0.703137 -1.766755,-0.792266 -2.473854,-0.176279 -0.617968,0.530819 -0.794247,1.501347 -0.35454,2.206463 0.08913,0.08913 0.08913,0.17826 0.17826,0.26739 l 1.590477,1.766756 -0.530819,0.269371 -6.890743,-2.481777 c -0.8833773,-0.35652 -1.9430343,0.1743 -2.2975743,1.055696 -0.176279,0.532801 -0.08715,1.059657 0.17628,1.505307 0.17826,0.35454 0.530818,0.61995 0.972508,0.792267 l 4.0643293,1.412216 -1.943034,1.152748 -2.0321653,-0.974488 c -0.883378,-0.441688 -1.943035,-0.08517 -2.386705,0.796228 -0.26541,0.530819 -0.26541,1.146807 0.08913,1.679607 0.17628,0.265409 0.35454,0.443669 0.617969,0.619948 l -0.263429,0.26739 c -0.883378,0.441689 -1.148787,1.501347 -0.619949,2.382744 0.443669,0.883377 1.501346,1.148786 2.386704,0.619949 l 0.17628,-0.09111 c 0,0.885358 0.707098,1.681587 1.6796053,1.770717 0.972508,0.08913 1.855886,-0.705118 1.855886,-1.679606 l 0.176279,-2.206464 1.943035,-1.150768 -0.796228,4.24259 c -0.17628,0.970527 0.443669,1.857866 1.414197,2.032164 0.972507,0.17628 1.855885,-0.443669 2.032164,-1.414196 l 1.325067,-7.245281 0.530819,-0.265409 0.794247,2.208444 c 0.265409,0.883377 1.325067,1.414197 2.208444,1.146806 0.883378,-0.352559 1.412216,-1.327047 1.148788,-2.206463 l -0.972508,-2.919505 2.473854,-1.412216 4.416888,2.475834 0,2.824433 -3.093802,0.621929 c -0.972509,0.176279 -1.590476,1.148788 -1.412216,2.119314 0.176279,0.972508 1.148786,1.592457 2.121294,1.414198 l 2.297575,-0.44169 0,0.530819 -5.567657,4.769447 c -0.707098,0.619949 -0.794247,1.768736 -0.176279,2.475836 0.617968,0.703136 1.766755,0.792265 2.473853,0.174298 l 3.268102,-2.826414 0,2.295595 -1.855886,1.237916 c -0.796228,0.53082 -1.061637,1.679606 -0.530818,2.471874 0.530818,0.794247 1.590476,0.974488 2.386704,0.53478 l 0,0.263429 c 0,0.972507 0.794248,1.768736 1.766755,1.768736 0.972508,0 1.766756,-0.792267 1.766756,-1.768736 l 0,-0.263429 c 0.269371,0.174299 0.619948,0.263429 0.883377,0.263429 0.53478,0 1.150768,-0.263429 1.503327,-0.792268 0.532799,-0.794247 0.354539,-1.943034 -0.5328,-2.475834 l -1.857866,-1.233956 0,-2.297574 3.270082,2.826414 c 0.352559,0.26739 0.705118,0.443669 1.148787,0.443669 0.53082,0 0.968547,-0.176279 1.325067,-0.61797 0.619949,-0.705117 0.530819,-1.857864 -0.17826,-2.475833 l -5.569637,-4.769447 0,-0.53676 2.297575,0.443669 c 0.08913,0 0.26739,0 0.3585,0 0.790286,0 1.586515,-0.619949 1.766755,-1.414198 0.17826,-0.970526 -0.443669,-1.857866 -1.414196,-2.119314 l -3.008634,-0.530818 0,-2.828394 4.418869,-2.475835 2.471873,1.416178 -0.970527,2.917523 c -0.35652,0.881397 0.178261,1.941054 1.148787,2.204483 0.881397,0.358501 1.941054,-0.174299 2.208444,-1.144826 l 0.792267,-2.210424 0.530819,0.269371 1.327048,7.24132 c 0.17826,0.970526 1.059656,1.590475 2.030184,1.414196 0.972507,-0.17628 1.590476,-1.057676 1.416177,-2.028204 l -0.796229,-4.24457 1.941054,1.148788 0.17826,2.206463 c 0.08913,0.972507 0.883379,1.681587 1.857867,1.681587 0.972508,-0.08913 1.679606,-0.881398 1.679606,-1.768736 l 0.17826,0.08715 c 0.881397,0.532799 1.941054,0.17826 2.386704,-0.617968 0.449612,-0.972508 0.182222,-2.036126 -0.697195,-2.471874 z m -28.276008,-9.279426 0,-5.036838 4.418869,-2.561003 4.42085,2.561003 0,5.036838 -4.42085,2.561003 -4.418869,-2.561003 z" />
</svg>
